2.2Hzhigh3min_grf.mot
version=1
nRows=10
nColumns 19
inDegrees=yes
endheader
time	1_ground_force_vx	1_ground_force_vy	1_ground_force_vz	1_ground_force_px	1_ground_force_py	1_ground_force_pz	1_ground_torque_x	1_ground_torque_y	1_ground_torque_z	2_ground_force_vx	2_ground_force_vy	2_ground_force_vz	2_ground_force_px	2_ground_force_py	2_ground_force_pz	2_ground_torque_x	2_ground_torque_y	2_ground_torque_z
            3.751500	           -0.091023	            1.981135	            0.421433	           -0.233013	            0.005581	           -0.255695	            0.281555	            0.055326	            0.033154	            0.466944	            0.371829	           -0.515094	           -0.232311	            0.006130	           -0.833667	           -0.319358	           -0.010270	           -0.094149
            3.752000	            0.046164	            1.981752	            0.283524	           -0.233013	            0.005581	           -0.255695	            0.268588	            0.212601	            0.020927	            0.233879	            0.003858	           -0.844805	           -0.232311	            0.006130	           -0.833667	           -0.225335	           -0.056589	           -0.264009
            3.752500	           -0.000003	            1.261467	            0.097123	           -0.233013	            0.005581	           -0.255695	            0.257765	            0.231622	           -0.112480	            0.325085	            0.739451	           -0.466792	           -0.232311	            0.006130	           -0.833667	           -0.262838	           -0.075630	           -0.264061
            3.753000	            0.091794	            2.522754	            0.239873	           -0.233013	            0.005581	           -0.255695	            0.232745	           -0.018552	            0.040759	            0.279523	            0.371320	           -0.561943	           -0.232311	            0.006130	           -0.833667	           -0.300459	           -0.066178	           -0.301712
            3.753500	            0.138192	            1.981180	            0.420864	           -0.233013	            0.005581	           -0.255695	            0.300450	           -0.231191	            0.060451	            0.281497	           -0.180958	           -0.610842	           -0.232311	            0.006130	           -0.833667	           -0.243849	           -0.123095	           -0.188837
            3.754000	            0.000860	            0.899559	            0.416568	           -0.233013	            0.005581	           -0.255695	            0.282514	           -0.314690	            0.110706	            0.233276	            0.187505	           -0.703364	           -0.232311	            0.006130	           -0.833667	           -0.281480	           -0.095208	           -0.094468
            3.754500	            0.183825	            1.260716	            0.280091	           -0.233013	            0.005581	           -0.255695	            0.212729	           -0.184652	           -0.012344	            0.185865	            0.370647	           -0.468047	           -0.232311	            0.006130	           -0.833667	           -0.300146	           -0.132952	           -0.132296
            3.755000	            0.230105	            1.980804	            0.512349	           -0.233013	            0.005581	           -0.255695	            0.277763	            0.101532	            0.084641	            0.231324	            0.739615	           -0.607537	           -0.232311	            0.006130	           -0.833667	           -0.263069	           -0.000345	           -0.169540
            3.755500	            0.412387	            2.343140	            0.100736	           -0.233013	            0.005581	           -0.255695	            0.219860	            0.175860	            0.017717	            0.420738	            0.187679	           -0.562660	           -0.232311	            0.006130	           -0.833667	           -0.338144	           -0.010337	           -0.094141
            3.756000	            0.092154	            1.801298	            0.328493	           -0.233013	            0.005581	           -0.255695	            0.210547	            0.120017	            0.060232	            0.417271	            1.109592	           -0.887871	           -0.232311	            0.006130	           -0.833667	           -0.319425	           -0.000548	           -0.169516
